<svg xmlns="http://www.w3.org/2000/svg" viewBox="0 0 512 512" width="512" height="512">
  <defs>
    <radialGradient id="ball" cx="38%" cy="32%" r="80%">
      <stop offset="0%" stop-color="#ffffff"/>
      <stop offset="100%" stop-color="#f1e9d2"/>
    </radialGradient>
    <linearGradient id="bg" x1="0" y1="0" x2="0" y2="1">
      <stop offset="0%" stop-color="#1546a8"/>
      <stop offset="100%" stop-color="#0b2a6b"/>
    </linearGradient>
  </defs>
  <rect width="512" height="512" rx="112" fill="url(#bg)"/>
  <!-- motion / speed lines (thrown ball) -->
  <g stroke="#d8232a" stroke-width="20" stroke-linecap="round" opacity="0.9">
    <line x1="70" y1="190" x2="210" y2="210"/>
    <line x1="60" y1="256" x2="200" y2="256"/>
    <line x1="70" y1="322" x2="210" y2="302"/>
  </g>
  <!-- baseball -->
  <circle cx="320" cy="256" r="120" fill="url(#ball)" stroke="#d9cba6" stroke-width="3"/>
  <g stroke="#d8232a" stroke-width="9" fill="none" stroke-linecap="round">
    <path d="M250 162 C 286 214, 286 298, 250 350"/>
    <path d="M392 168 C 360 216, 360 296, 392 344"/>
    <g stroke-width="6">
      <path d="M266 178 l 16 -8 M270 204 l 16 -7 M274 232 l 16 -5 M274 282 l 16 5 M270 308 l 16 7 M266 334 l 16 8"/>
      <path d="M376 184 l -16 -8 M372 208 l -16 -6 M369 234 l -16 -4 M369 280 l -16 4 M372 306 l -16 6 M376 332 l -16 8"/>
    </g>
  </g>
</svg>
